# xmcd
#
# Track frame offsets:
# 150
# 7936
# 24610
# 46635
# 67545
# 84587
# 103449
# 133694
# 147105
# 166608
# 194962
# 212866
# 229825
# 247528
#
# Disc length: 3360 seconds
#
#
# Revision: 0
# Processed by: cddbd v1.5.2PL0 Copyright (c) Steve Scherf et al.
# Submitted via: FreeRIP 2.96 
#
DISCID=b10d1e0e
DTITLE=Dubbeglasbrieder - Live un in Farb
DYEAR=2007
DGENRE=Country
TTITLE0=Grußwort-Dubbeglas-Brieder
TTITLE1=Palzlied
TTITLE2=All my Loving
TTITLE3=Rote Lippen
TTITLE4=The joker
TTITLE5=Tränen lügen nicht
TTITLE6=Da für dich
TTITLE7=I saw her standing there
TTITLE8=Über den Wolken
TTITLE9=Country roads
TTITLE10=Dubbelglasblues
TTITLE11=I hear you knocking
TTITLE12=Dubbeglasbriederlied
TTITLE13=De Dubbeglaskussäng
EXTD=
EXTT0=
EXTT1=
EXTT2=
EXTT3=
EXTT4=
EXTT5=
EXTT6=
EXTT7=
EXTT8=
EXTT9=
EXTT10=
EXTT11=
EXTT12=
EXTT13=
PLAYORDER=
